<?xml version="1.0" encoding="UTF-8" standalone="no"?>
<!-- Generator: Adobe Illustrator 22.1.0, SVG Export Plug-In . SVG Version: 6.00 Build 0)  -->

<svg
   xmlns:dc="http://purl.org/dc/elements/1.1/"
   xmlns:cc="http://creativecommons.org/ns#"
   xmlns:rdf="http://www.w3.org/1999/02/22-rdf-syntax-ns#"
   xmlns:svg="http://www.w3.org/2000/svg"
   xmlns="http://www.w3.org/2000/svg"
   xmlns:sodipodi="http://sodipodi.sourceforge.net/DTD/sodipodi-0.dtd"
   xmlns:inkscape="http://www.inkscape.org/namespaces/inkscape"
   version="1.1"
   id="Layer_1"
   x="0px"
   y="0px"
   viewBox="0 0 1513.3001 233"
   xml:space="preserve"
   inkscape:version="0.91 r13725"
   sodipodi:docname="hm-logo.svg"
   width="1513.3"
   height="233"><metadata
     id="metadata53"><rdf:RDF><cc:Work
         rdf:about=""><dc:format>image/svg+xml</dc:format><dc:type
           rdf:resource="http://purl.org/dc/dcmitype/StillImage" /><dc:title></dc:title></cc:Work></rdf:RDF></metadata><defs
     id="defs51" /><sodipodi:namedview
     pagecolor="#ffffff"
     bordercolor="#666666"
     borderopacity="1"
     objecttolerance="10"
     gridtolerance="10"
     guidetolerance="10"
     inkscape:pageopacity="0"
     inkscape:pageshadow="2"
     inkscape:window-width="902"
     inkscape:window-height="596"
     id="namedview49"
     showgrid="false"
     fit-margin-top="0"
     fit-margin-left="0"
     fit-margin-right="0"
     fit-margin-bottom="0"
     inkscape:zoom="0.17137467"
     inkscape:cx="711.74999"
     inkscape:cy="130.6"
     inkscape:window-x="0"
     inkscape:window-y="0"
     inkscape:window-maximized="0"
     inkscape:current-layer="Layer_1" /><style
     type="text/css"
     id="style3">
	.st0{fill:#4C779C;}
	.st1{fill:#FFFFFF;}
	.st2{fill:#8DAF49;}
	.st3{fill:#68BDC6;}
	.st4{fill:#DE2D36;}
</style><g
     id="g5"
     transform="translate(-242.3,-163.6)"><path
       class="st0"
       d="m 639.3,349.3 c 0,1.9 -0.7,3.6 -2.1,5.1 -1.4,1.5 -3,2.2 -4.9,2.2 l -4.9,0 c -4.9,0 -7.3,-2.4 -7.3,-7.3 l 0,-74.9 -108.5,0 0,74.9 c 0,1.9 -0.7,3.6 -2.2,5.1 -1.5,1.5 -3.2,2.2 -5.1,2.2 l -4.9,0 c -1.9,0 -3.6,-0.7 -5.1,-2.2 -1.5,-1.5 -2.2,-3.2 -2.2,-5.1 l 0,-161.7 c 0,-1.9 0.7,-3.6 2.2,-5.1 1.5,-1.5 3.2,-2.2 5.1,-2.2 l 4.9,0 c 1.9,0 3.6,0.7 5.1,2.2 1.5,1.5 2.2,3.2 2.2,5.1 l 0,67.9 108.4,0 0,-67.9 c 0,-4.9 2.4,-7.3 7.3,-7.3 l 4.9,0 c 1.9,0 3.6,0.7 4.9,2.2 1.4,1.5 2.1,3.2 2.1,5.1 l 0,161.7 z"
       id="path7"
       inkscape:connector-curvature="0"
       style="fill:#4c779c" /><path
       class="st0"
       d="m 794.2,293.4 c 0,4.9 -2.4,7.3 -7.3,7.3 l -97.5,0.3 c 2.1,26.4 16.2,39.5 42.4,39.5 8.7,0 16.6,-2.1 23.7,-6.2 7.8,-4.3 13.1,-10.4 15.9,-18.2 l -0.3,0.5 c 0.9,-3.6 3.1,-5.5 6.8,-5.5 l 4.9,0 c 4.9,0 7.3,2.4 7.3,7.3 l 0,1 c -8.1,26.4 -27.7,39.5 -58.8,39.5 -20.3,0 -35.5,-6 -45.8,-17.9 -10.2,-12 -15.3,-28 -15.3,-48.1 0,-19.2 5.5,-35 16.6,-47.3 11.8,-13 27,-19.5 45.5,-19.5 18.7,0 33.7,5.6 45,16.9 11.3,11.3 16.9,26.4 16.9,45.2 l 0,5.2 z m -20.5,-11.2 c -1.4,-10.2 -5,-18.6 -10.9,-25.2 -7.1,-8 -17.3,-12 -30.4,-12 -11.6,0 -21.2,3.3 -28.7,10 -7.5,6.7 -12.2,15.7 -13.9,27.2 l 83.9,0 z"
       id="path9"
       inkscape:connector-curvature="0"
       style="fill:#4c779c" /><path
       class="st0"
       d="m 939.8,349.6 c 0,4.7 -2.3,7 -7,7 l -4.9,0 c -4.7,0 -7,-2.3 -7,-7 l 0,-7.6 c -10.6,11.3 -24.9,16.9 -42.9,16.9 -19.1,0 -34.1,-6.4 -45,-19.2 -10.2,-12 -15.3,-27.6 -15.3,-46.8 0,-19.2 5.3,-34.9 15.9,-47.1 11.6,-13.2 26.7,-19.8 45.2,-19.8 17.5,0 31.5,5.6 42.1,16.9 l 0,-9.1 c 0,-1.9 0.7,-3.6 2.1,-5.1 1.4,-1.5 3,-2.2 4.9,-2.2 l 4.9,0 c 4.7,0 7,2.4 7,7.3 l 0,115.8 z m -18.9,-56.7 c 0,-14.7 -3.5,-26.2 -10.4,-34.3 -7.3,-9 -18.1,-13.5 -32.5,-13.5 -13.2,0 -23.5,4.8 -30.9,14.3 -6.9,8.8 -10.4,20 -10.4,33.5 0,13.7 3.1,24.7 9.4,33 0.3,0.2 0.8,0.5 1.3,1 7.3,9 17.5,13.5 30.7,13.5 13.2,0 23.6,-4.5 31.3,-13.4 7.6,-8.8 11.5,-20.2 11.5,-34.1 z"
       id="path11"
       inkscape:connector-curvature="0"
       style="fill:#4c779c" /><path
       class="st0"
       d="m 992.4,348.3 c 0,1.7 -0.8,3.3 -2.3,4.8 -1.6,1.5 -3.2,2.2 -4.9,2.2 l -2.3,0 c -4.9,0 -7.3,-2.3 -7.3,-7 l 0,-157.1 c 0,-4.9 2.4,-7.3 7.3,-7.3 l 2.3,0 c 1.7,0 3.4,0.8 4.9,2.3 1.6,1.6 2.3,3.2 2.3,4.9 l 0,157.2 z"
       id="path13"
       inkscape:connector-curvature="0"
       style="fill:#4c779c" /><path
       class="st0"
       d="m 1081,245 c 0,1.9 -0.7,3.6 -2,5.2 -1.3,1.6 -2.8,2.3 -4.6,2.3 l -13.8,0 0,96.7 c 0,1.7 -0.6,3.4 -1.9,4.9 -1.3,1.6 -2.8,2.3 -4.6,2.3 l -3.6,0 c -1.9,0 -3.5,-0.7 -4.8,-2.2 -1.3,-1.5 -2,-3.2 -2,-5.1 l -0.3,-96.7 -13.5,0 c -1.7,0 -3.3,-0.8 -4.6,-2.3 -1.3,-1.6 -2,-3.3 -2,-5.2 l 0,-4.4 c 0,-4.9 2.2,-7.3 6.5,-7.3 l 13.5,0 0,-29.1 c 0,-4.9 2.2,-7.3 6.5,-7.3 l 4.2,0 c 1.7,0 3.3,0.8 4.6,2.3 1.3,1.6 1.9,3.2 1.9,4.9 l 0,29.1 13.8,0 c 4.3,0 6.5,2.4 6.5,7.3 l 0,4.6 z"
       id="path15"
       inkscape:connector-curvature="0"
       style="fill:#4c779c" /><path
       class="st0"
       d="m 1217.3,349.3 c 0,1.9 -0.7,3.6 -2.1,5.1 -1.4,1.5 -3,2.2 -4.9,2.2 l -4.7,0 c -4.5,0 -6.8,-2.4 -6.8,-7.3 l 0,-77.2 c 0,-9.5 -2.8,-16.9 -8.5,-22.2 -5.6,-5.3 -13.3,-7.9 -23,-7.9 -11.6,0 -20.7,3.9 -27.2,11.6 -6.5,7.7 -9.8,17.7 -9.8,30 l 0,65.8 c 0,1.9 -0.7,3.6 -2.1,5.1 -1.4,1.5 -3,2.2 -4.9,2.2 l -4.9,0 c -4.7,0 -7,-2.4 -7,-7.3 l 0,-161.8 c 0,-4.9 2.3,-7.3 7,-7.3 l 4.9,0 c 1.9,0 3.6,0.7 4.9,2.2 1.4,1.5 2.1,3.2 2.1,5.1 l 0,48.6 c 1.4,-1.4 3,-2.8 4.9,-4.2 0.3,-0.3 0.8,-0.5 1.3,-0.5 9,-5.9 19.2,-8.8 30.7,-8.8 14,0 25.7,3.9 34.8,11.7 l -0.3,-0.3 c 10.2,8.2 15.3,20.1 15.3,35.9 l 0,79.3 z"
       id="path17"
       inkscape:connector-curvature="0"
       style="fill:#4c779c" /><path
       class="st0"
       d="m 1439.6,349.3 c 0,1.9 -0.8,3.6 -2.3,5.1 -1.6,1.5 -3.3,2.2 -5.2,2.2 l -4.9,0 c -4.9,0 -7.3,-2.4 -7.3,-7.3 l 0,-125.1 -62.7,128.5 c -1.2,2.6 -3.4,3.9 -6.5,3.9 l -5.5,0 c -3,0 -5,-1.3 -6.2,-3.9 l -62.7,-128.5 0,125.1 c 0,1.9 -0.8,3.6 -2.3,5.1 -1.6,1.5 -3.3,2.2 -5.2,2.2 l -4.9,0 c -4.9,0 -7.3,-2.4 -7.3,-7.3 l 0,-161.7 c 0,-4.9 2.4,-7.3 7.3,-7.3 l 8.1,0 c 2.9,0 5,1.3 6.2,3.9 l 69.9,143.5 69.7,-143.5 c 1.6,-2.6 3.7,-3.9 6.5,-3.9 l 7.8,0 c 1.9,0 3.6,0.7 5.2,2.2 1.6,1.5 2.3,3.2 2.3,5.1 l 0,161.7 z"
       id="path19"
       inkscape:connector-curvature="0"
       style="fill:#4c779c" /><path
       class="st0"
       d="m 1593.6,349.6 c 0,4.7 -2.3,7 -7,7 l -4.9,0 c -4.7,0 -7,-2.3 -7,-7 l 0,-7.6 c -10.6,11.3 -24.9,16.9 -42.9,16.9 -19.1,0 -34.1,-6.4 -45,-19.2 -10.2,-12 -15.3,-27.6 -15.3,-46.8 0,-19.2 5.3,-34.9 15.9,-47.1 11.6,-13.2 26.7,-19.8 45.2,-19.8 17.5,0 31.5,5.6 42.1,16.9 l 0,-9.1 c 0,-1.9 0.7,-3.6 2.1,-5.1 1.4,-1.5 3,-2.2 4.9,-2.2 l 4.9,0 c 4.7,0 7,2.4 7,7.3 l 0,115.8 z m -19,-56.7 c 0,-14.7 -3.5,-26.2 -10.4,-34.3 -7.3,-9 -18.1,-13.5 -32.5,-13.5 -13.2,0 -23.5,4.8 -30.9,14.3 -6.9,8.8 -10.4,20 -10.4,33.5 0,13.7 3.1,24.7 9.4,33 0.3,0.2 0.8,0.5 1.3,1 7.3,9 17.5,13.5 30.7,13.5 13.2,0 23.6,-4.5 31.3,-13.4 7.6,-8.8 11.5,-20.2 11.5,-34.1 z"
       id="path21"
       inkscape:connector-curvature="0"
       style="fill:#4c779c" /><path
       class="st0"
       d="m 1755.6,290.6 c 0,20.1 -4.8,35.9 -14.3,47.3 0,0.5 -0.3,1 -0.8,1.6 -10.6,13.4 -25.8,20 -45.8,20 -17.3,0 -31.4,-5.7 -42.1,-17.2 l 0,46.8 c 0,5 -2.3,7.5 -7,7.5 l -4.7,0 c -4.7,0 -7,-2.5 -7,-7.5 l 0,-156 c 0,-4.9 2.3,-7.3 7,-7.3 l 4.7,0 c 4.7,0 7,2.4 7,7.3 l 0,7 c 10.7,-11.4 24.8,-17.2 42.1,-17.2 19.1,0 34.1,6.5 45.2,19.5 10.5,12.2 15.7,28.2 15.7,48.2 z m -19,0.2 c 0,-13.9 -3.2,-25.2 -9.6,-34.1 -7.3,-9.7 -17.7,-14.6 -31.2,-14.6 -13.7,0 -24.3,4.5 -31.9,13.4 -7.5,8.9 -11.3,20.4 -11.3,34.5 0,33.5 14.3,50.2 42.9,50.2 13,0 23.1,-4.6 30.3,-13.8 7.2,-9.1 10.8,-21 10.8,-35.6 z"
       id="path23"
       inkscape:connector-curvature="0"
       style="fill:#4c779c" /></g><g
     id="g25"
     transform="translate(-242.3,-163.6)"><path
       class="st1"
       d="m 431.3,186.9 c 0,0 0.2,-2.4 -1.6,-4.5 -1.9,-2.1 -4.8,-2 -4.8,-2 l -176.6,0 c 0,0 -2.6,0.3 -4.3,2.1 -1.7,1.8 -1.7,4.3 -1.7,4.3 l 0,169.7 10.5,0 172.2,0 c 0,0 3.1,-0.5 4.8,-2.3 1.6,-1.8 1.7,-3.9 1.7,-3.9 l -0.2,-163.4 z"
       id="path27"
       inkscape:connector-curvature="0"
       style="fill:#ffffff" /><g
       id="g29"><g
         id="g31"><g
           id="g33"><path
             class="st2"
             d="m 429.8,182.4 c -1.9,-2.1 -4.8,-2 -4.8,-2 l -176.6,0 c 0,0 -2.7,0.2 -4.4,2 -1.7,1.8 -1.7,4.3 -1.7,4.3 l 0,167.8 c 1,-1.2 2,-2.5 3.2,-3.9 1.5,-1.7 3.2,-3.5 5.1,-5.4 3.8,-3.7 8.4,-7.5 13.9,-11 5.5,-3.4 12.1,-6.4 19.5,-8.2 0.9,-0.2 1.9,-0.4 2.8,-0.6 0.9,-0.1 1.9,-0.3 2.9,-0.4 1,-0.1 1.9,-0.2 2.9,-0.3 0.9,-0.1 1.8,-0.2 2.8,-0.2 3.9,-0.2 7.8,-0.3 11.8,-0.1 4,0.2 8,0.7 12.1,1.4 4,0.7 8,1.6 11.9,2.5 3.9,0.9 7.8,1.8 11.6,2.2 3.8,0.5 7.7,0.6 11.5,0.2 7.6,-0.7 14.9,-3.5 21,-7.9 6.1,-4.4 11,-10.3 14.5,-16.7 1.7,-3.2 3.2,-6.5 4.3,-9.9 0.5,-1.7 1,-3.4 1.4,-5 0.2,-0.8 0.4,-1.7 0.6,-2.5 0.2,-0.9 0.3,-1.7 0.5,-2.6 1.4,-7.1 3.4,-13.7 6,-19.5 2.6,-5.8 5.8,-10.9 9.4,-14.7 3.6,-3.9 7.6,-6.5 11.2,-8 3.6,-1.5 6.2,-2 8.3,-2.2 l 0,-54.9 c -0.1,0.1 0.1,-2.3 -1.7,-4.4 z"
             id="path35"
             inkscape:connector-curvature="0"
             style="fill:#8daf49" /><path
             class="st3"
             d="m 424.9,248 c -3,1.3 -6.4,3.6 -9.5,7.1 -3.1,3.5 -6,8.1 -8.3,13.6 -2.3,5.4 -4.1,11.7 -5.3,18.5 -0.2,0.9 -0.3,1.7 -0.5,2.6 -0.2,0.9 -0.3,1.8 -0.6,2.7 -0.4,1.8 -0.9,3.7 -1.5,5.5 -1.1,3.7 -2.6,7.4 -4.5,10.9 -3.7,7.1 -9.1,13.9 -15.9,19 -1.7,1.3 -3.5,2.5 -5.4,3.6 -1.9,1.1 -3.8,2 -5.9,2.9 -2,0.8 -4.1,1.5 -6.3,2 -0.5,0.1 -1.1,0.3 -1.6,0.4 -0.5,0.1 -1.1,0.3 -1.6,0.3 l -1.6,0.3 -1.6,0.2 c -4.3,0.5 -8.7,0.5 -13,0 -4.3,-0.5 -8.4,-1.3 -12.3,-2.1 -4,-0.8 -7.8,-1.6 -11.6,-2.2 -3.8,-0.6 -7.5,-0.9 -11.2,-1 -3.7,-0.1 -7.3,0 -10.8,0.3 -0.9,0.1 -1.8,0.2 -2.7,0.3 -0.8,0.1 -1.7,0.2 -2.5,0.3 -0.8,0.1 -1.6,0.3 -2.4,0.4 -0.8,0.2 -1.6,0.4 -2.4,0.6 -6.3,1.6 -12,4.4 -16.8,7.5 -4.8,3.1 -8.9,6.7 -12.1,10 -1.6,1.6 -3,3.2 -4.2,4.7 l 172.2,0 c 0,0 3.1,-0.5 4.8,-2.3 1.6,-1.8 1.7,-3.9 1.7,-3.9 l -0.1,-104.1 c -1.8,0.2 -3.5,0.5 -6.5,1.9 z"
             id="path37"
             inkscape:connector-curvature="0"
             style="fill:#68bdc6" /></g></g><g
         id="g39"><g
           id="g41"><path
             class="st4"
             d="m 336.5,163.6 c -30.9,0 -55.9,25 -55.9,55.9 0,24.9 16.3,46 38.8,53.2 9.3,11.8 17.2,20.2 17.2,20.2 0,0 7.9,-8.4 17.2,-20.2 22.5,-7.2 38.8,-28.3 38.8,-53.2 -0.2,-30.8 -25.2,-55.9 -56.1,-55.9 z m 0,93.9 c -20.9,0 -37.9,-17 -37.9,-37.9 0,-20.9 17,-37.9 37.9,-37.9 20.9,0 37.9,17 37.9,37.9 0,20.9 -16.9,37.9 -37.9,37.9 z"
             id="path43"
             inkscape:connector-curvature="0"
             style="fill:#de2d36" /><path
             class="st1"
             d="m 336.5,181.6 c -20.9,0 -37.9,17 -37.9,37.9 0,20.9 17,37.9 37.9,37.9 20.9,0 37.9,-17 37.9,-37.9 0,-20.9 -16.9,-37.9 -37.9,-37.9 z m 22.9,40.8 c 0,1.8 -1.5,3.3 -3.3,3.3 l -13.5,0 0,13.1 c 0,1.8 -1.5,3.3 -3.3,3.3 l -2.5,0 -2.5,0 c -1.8,0 -3.3,-1.5 -3.3,-3.3 l 0,-13.1 -13.5,0 c -1.8,0 -3.3,-1.5 -3.3,-3.3 l 0,-5.1 c 0,-1.8 1.5,-3.3 3.3,-3.3 l 13.5,0 0,-13.9 c 0,-1.8 1.5,-3.3 3.3,-3.3 l 2.5,0 2.5,0 c 1.8,0 3.3,1.5 3.3,3.3 l 0,13.9 13.5,0 c 1.8,0 3.3,1.5 3.3,3.3 l 0,5.1 z"
             id="path45"
             inkscape:connector-curvature="0"
             style="fill:#ffffff" /></g><path
           class="st4"
           d="m 356.1,214.1 -13.5,0 0,-13.9 c 0,-1.8 -1.5,-3.3 -3.3,-3.3 l -2.5,0 -2.5,0 c -1.8,0 -3.3,1.5 -3.3,3.3 l 0,13.9 -13.5,0 c -1.8,0 -3.3,1.5 -3.3,3.3 l 0,5.1 c 0,1.8 1.5,3.3 3.3,3.3 l 13.5,0 0,13.1 c 0,1.8 1.5,3.3 3.3,3.3 l 2.5,0 2.5,0 c 1.8,0 3.3,-1.5 3.3,-3.3 l 0,-13.1 13.5,0 c 1.8,0 3.3,-1.5 3.3,-3.3 l 0,-5.1 c 0,-1.8 -1.5,-3.3 -3.3,-3.3"
           id="path47"
           inkscape:connector-curvature="0"
           style="fill:#de2d36" /></g></g></g></svg>