<?xml version="1.0" encoding="utf-8"?>
<!-- Generator: Adobe Illustrator 25.0.0, SVG Export Plug-In . SVG Version: 6.00 Build 0)  -->
<svg version="1.1" id="Layer_1" xmlns="http://www.w3.org/2000/svg" xmlns:xlink="http://www.w3.org/1999/xlink" x="0px" y="0px"
	 viewBox="0 0 682.1 148.9" style="enable-background:new 0 0 682.1 148.9;" xml:space="preserve">
<style type="text/css">
	.st0{fill:#001B50;}
	.st1{fill:#00C0F3;}
	.st2{fill:#0083C2;}
	.st3{fill:#BCE6F7;}
</style>
<g>
	<path class="st0" d="M44.8,20.8c-0.4-2.5,1.2-4.8,3.6-5.3c2.5-0.5,4.8,1.2,5.3,3.7c0.4,2.4-1.2,4.8-3.7,5.3c-2.1,0.4-4.2-0.8-5-2.7
		C44.9,21.5,44.8,21.1,44.8,20.8"/>
	<path class="st1" d="M34,28.4c-1-2.3,0.1-5,2.4-5.9c2.3-1,5,0.1,5.9,2.4c1,2.3-0.1,5-2.4,5.9c-2,0.8-4.2,0.1-5.4-1.5
		C34.3,29,34.1,28.7,34,28.4"/>
	<path class="st0" d="M18.5,49.6c-1.8-1.7-2-4.6-0.3-6.4c1.7-1.9,4.5-2,6.4-0.3c1.8,1.7,2,4.6,0.3,6.4c-1.4,1.6-3.8,1.9-5.6,0.9
		C19.1,50,18.8,49.8,18.5,49.6"/>
	<path class="st1" d="M14.5,62.2c-2.2-1.3-2.9-4-1.6-6.2c1.2-2.2,4-2.9,6.2-1.7c2.2,1.2,2.9,4,1.6,6.2c-1.1,1.9-3.3,2.7-5.2,2.1
		C15.1,62.5,14.8,62.3,14.5,62.2"/>
	<path class="st1" d="M13.4,75.3c-2.4-0.8-3.7-3.3-2.9-5.7c0.7-2.4,3.3-3.7,5.7-2.9c2.4,0.8,3.7,3.3,2.9,5.7c-0.6,2-2.6,3.3-4.7,3.1
		C14,75.5,13.7,75.4,13.4,75.3"/>
	<path class="st1" d="M35.7,121.4c-2.1,1.3-4.9,0.7-6.2-1.4c-1.3-2.1-0.7-4.9,1.4-6.2c2.1-1.3,4.9-0.7,6.2,1.5
		c1.1,1.8,0.8,4.2-0.6,5.6C36.2,121,36,121.3,35.7,121.4"/>
	<path class="st0" d="M46.7,128.6c-1.8,1.7-4.6,1.7-6.4-0.1c-1.8-1.8-1.7-4.7,0.1-6.4c1.8-1.7,4.6-1.7,6.4,0.1
		c1.5,1.5,1.7,3.9,0.6,5.6C47.2,128.1,46.9,128.4,46.7,128.6"/>
	<path class="st1" d="M72.1,135.2c-0.9,2.3-3.5,3.5-5.8,2.6c-2.3-0.9-3.5-3.5-2.6-5.8c0.9-2.3,3.5-3.5,5.8-2.6
		c2,0.8,3.2,2.8,2.9,4.9C72.3,134.6,72.2,134.9,72.1,135.2"/>
	<path class="st1" d="M109.4,124.1c0.7,2.4-0.7,4.9-3.1,5.6c-2.4,0.7-4.9-0.7-5.6-3.1c-0.7-2.4,0.7-4.9,3.1-5.6
		c2.1-0.6,4.2,0.3,5.2,2.1C109.1,123.5,109.3,123.8,109.4,124.1"/>
	<path class="st1" d="M119.3,115.4c1.2,2.2,0.4,4.9-1.8,6.2c-2.2,1.2-4.9,0.4-6.1-1.8c-1.2-2.2-0.4-4.9,1.8-6.1c1.9-1,4.2-0.6,5.6,1
		C118.9,114.8,119.1,115.1,119.3,115.4"/>
	<path class="st0" d="M127.1,104.7c1.6,1.9,1.5,4.7-0.4,6.4c-1.9,1.7-4.7,1.5-6.4-0.4c-1.6-1.9-1.5-4.7,0.4-6.4
		c1.6-1.4,4-1.5,5.6-0.3C126.6,104.3,126.8,104.5,127.1,104.7"/>
	<path class="st1" d="M131.7,53.7c2.5,0,4.6,2,4.6,4.5c0,2.5-1.9,4.6-4.4,4.6c-2.5,0-4.6-1.9-4.6-4.5c0-2.2,1.4-4,3.4-4.5
		C131,53.8,131.3,53.7,131.7,53.7"/>
	<path class="st0" d="M125.9,41.8c2.4-0.6,4.9,0.9,5.5,3.4c0.6,2.4-0.9,4.9-3.4,5.5c-2.4,0.6-4.9-0.9-5.4-3.4
		c-0.5-2.1,0.5-4.2,2.4-5.1C125.3,42,125.6,41.9,125.9,41.8"/>
	<path class="st1" d="M117.8,31.5c2.3-1.1,4.9-0.1,6,2.1c1.1,2.3,0.1,5-2.1,6.1c-2.2,1.1-4.9,0.1-6-2.1c-0.9-1.9-0.4-4.2,1.2-5.5
		C117.2,31.8,117.5,31.6,117.8,31.5"/>
	<path class="st1" d="M107.6,23.1c2-1.5,4.8-1.2,6.4,0.8c1.6,2,1.2,4.8-0.8,6.4c-2,1.5-4.8,1.2-6.3-0.8c-1.3-1.7-1.3-4,0-5.6
		C107.1,23.5,107.3,23.3,107.6,23.1"/>
	<path class="st1" d="M95.8,17.1c1.6-1.9,4.4-2.2,6.4-0.6c1.9,1.6,2.2,4.4,0.6,6.4c-1.6,1.9-4.4,2.2-6.4,0.6
		c-1.7-1.4-2.1-3.7-1.2-5.5C95.4,17.7,95.6,17.4,95.8,17.1"/>
	<path class="st1" d="M83.1,13.8c1.1-2.2,3.9-3.1,6.1-2c2.2,1.1,3.1,3.9,2,6.1c-1.1,2.2-3.9,3.1-6.1,2c-1.9-1-2.8-3.1-2.3-5.1
		C82.8,14.4,82.9,14.1,83.1,13.8"/>
	<path class="st0" d="M64.4,42c1.6,3,0.4,6.8-2.6,8.4c-3,1.6-6.8,0.4-8.4-2.6c-1.6-3-0.4-6.8,2.6-8.4C59.1,37.8,62.8,38.9,64.4,42"
		/>
	<path class="st0" d="M50.6,50.3c2.8,1.9,3.5,5.8,1.6,8.6c-1.9,2.8-5.8,3.5-8.6,1.6c-2.8-1.9-3.5-5.8-1.6-8.6
		C43.9,49,47.8,48.3,50.6,50.3"/>
	<path class="st0" d="M42.2,64.1c3.4,0.4,5.8,3.5,5.4,6.9c-0.4,3.4-3.5,5.8-6.9,5.4c-3.4-0.4-5.8-3.5-5.4-6.9
		C35.7,66.1,38.8,63.6,42.2,64.1"/>
	<path class="st0" d="M47.7,94.9c2.3-2.6,6.2-2.8,8.8-0.5c2.6,2.3,2.8,6.2,0.5,8.8c-2.3,2.6-6.2,2.8-8.8,0.5
		C45.7,101.4,45.4,97.5,47.7,94.9"/>
	<path class="st0" d="M60.3,104.9c0.8-3.3,4.2-5.4,7.5-4.5c3.3,0.8,5.4,4.2,4.5,7.5c-0.8,3.3-4.2,5.4-7.5,4.5
		C61.6,111.6,59.5,108.2,60.3,104.9"/>
	<path class="st0" d="M76.2,107.9c-0.8-3.3,1.2-6.7,4.5-7.5c3.3-0.8,6.7,1.2,7.5,4.5c0.8,3.3-1.2,6.7-4.5,7.5
		C80.4,113.3,77,111.2,76.2,107.9"/>
	<path class="st0" d="M91.6,103.1c-2.3-2.6-2-6.5,0.5-8.8c2.6-2.3,6.5-2,8.8,0.5c2.3,2.6,2,6.5-0.5,8.8
		C97.8,106,93.9,105.7,91.6,103.1"/>
	<path class="st0" d="M103,91.8c-3.2-1.2-4.8-4.8-3.6-8c1.2-3.2,4.8-4.8,8-3.6c3.2,1.2,4.8,4.8,3.6,8C109.8,91.4,106.2,93,103,91.8"
		/>
	<path class="st0" d="M105,60.5c-2.8,1.9-6.7,1.2-8.6-1.6c-1.9-2.8-1.2-6.7,1.6-8.6c2.8-1.9,6.7-1.2,8.6,1.6
		C108.6,54.7,107.9,58.6,105,60.5"/>
	<path class="st0" d="M95.2,47.8c-1.6,3-5.3,4.2-8.4,2.6c-3-1.6-4.2-5.4-2.6-8.4c1.6-3,5.3-4.2,8.4-2.6C95.6,41,96.7,44.7,95.2,47.8
		"/>
	<path class="st2" d="M83,22.5c2.8,1,4.2,3.9,3.3,6.7c-0.9,2.8-3.9,4.2-6.7,3.3c-2.7-0.9-4.2-3.9-3.3-6.7C77.3,23,80.3,21.5,83,22.5
		"/>
	<path class="st2" d="M67.4,22.1c2.9,0.1,5.2,2.5,5.1,5.4c-0.1,2.9-2.5,5.2-5.4,5.1c-2.9-0.1-5.2-2.5-5.1-5.4
		C62.1,24.3,64.5,22,67.4,22.1"/>
	<path class="st0" d="M52.4,26.4c2.8-0.8,5.7,0.9,6.5,3.7c0.8,2.8-0.9,5.7-3.7,6.5c-2.8,0.8-5.7-0.9-6.5-3.7
		C47.9,30.1,49.6,27.2,52.4,26.4"/>
	<path class="st0" d="M29.4,47c1.9-2.2,5.2-2.5,7.4-0.6c2.2,1.9,2.5,5.2,0.6,7.4c-1.9,2.2-5.2,2.5-7.4,0.6
		C27.8,52.6,27.5,49.2,29.4,47"/>
	<path class="st2" d="M25.1,92.4c-0.6-2.9,1.3-5.6,4.2-6.2c2.9-0.6,5.6,1.3,6.2,4.2c0.6,2.9-1.3,5.6-4.2,6.2
		C28.4,97.1,25.6,95.2,25.1,92.4"/>
	<path class="st2" d="M32.6,106.1c-1.4-2.6-0.4-5.8,2.1-7.2c2.6-1.4,5.8-0.4,7.1,2.2c1.4,2.6,0.4,5.8-2.1,7.1
		C37.2,109.6,34,108.7,32.6,106.1"/>
	<path class="st0" d="M43.8,117c-2.1-2.1-2.1-5.4-0.1-7.5c2-2.1,5.4-2.1,7.5,0c2.1,2,2.1,5.4,0.1,7.5C49.3,119,45.9,119,43.8,117"/>
	<path class="st2" d="M57.8,124c-2.6-1.4-3.6-4.5-2.3-7.1c1.3-2.6,4.5-3.6,7.1-2.2c2.6,1.3,3.6,4.5,2.2,7.1
		C63.5,124.4,60.3,125.4,57.8,124"/>
	<path class="st2" d="M73.2,126.7c-2.9-0.5-4.8-3.3-4.3-6.1c0.5-2.9,3.3-4.8,6.1-4.2c2.9,0.5,4.8,3.3,4.2,6.1
		C78.8,125.3,76,127.2,73.2,126.7"/>
	<path class="st2" d="M88.7,124.7c-2.9,0.3-5.5-1.7-5.9-4.6c-0.3-2.9,1.7-5.5,4.6-5.9c2.9-0.3,5.5,1.7,5.9,4.6
		C93.6,121.7,91.5,124.3,88.7,124.7"/>
	<path class="st2" d="M122.6,94.4c-1.5,2.5-4.8,3.3-7.3,1.7c-2.5-1.5-3.2-4.8-1.7-7.3c1.5-2.5,4.8-3.2,7.2-1.7
		C123.4,88.7,124.2,91.9,122.6,94.4"/>
	<path class="st2" d="M126.4,79.2c-0.7,2.8-3.6,4.5-6.4,3.8c-2.8-0.7-4.5-3.6-3.8-6.4c0.7-2.8,3.6-4.5,6.4-3.8
		C125.5,73.5,127.2,76.4,126.4,79.2"/>
	<path class="st2" d="M125.6,63.6c0.1,2.9-2.1,5.4-5,5.5c-2.9,0.1-5.4-2.1-5.5-5c-0.1-2.9,2.1-5.4,5-5.5
		C123,58.4,125.5,60.7,125.6,63.6"/>
	<path class="st0" d="M120.2,48.9c1,2.8-0.4,5.8-3.2,6.8c-2.7,1-5.8-0.4-6.7-3.2c-1-2.7,0.4-5.8,3.2-6.7
		C116.2,44.7,119.2,46.2,120.2,48.9"/>
	<path class="st0" d="M114.6,107.8c-2.2,1.9-5.5,1.7-7.5-0.5c-1.9-2.2-1.7-5.5,0.5-7.5c2.2-1.9,5.5-1.7,7.4,0.5
		C117,102.5,116.7,105.9,114.6,107.8"/>
	<path class="st3" d="M76.5,2.9c0.5-2,2.6-3.3,4.6-2.7l0,0c2,0.5,3.2,2.6,2.7,4.6c-0.5,2-2.6,3.3-4.6,2.7c-1.8-0.5-3-2.2-2.8-4
		C76.4,3.3,76.5,3.1,76.5,2.9"/>
	<path class="st1" d="M52.7,6.2c-0.2-2.1,1.3-3.9,3.4-4.1l0,0c2.1-0.2,3.9,1.3,4.1,3.4c0.2,2.1-1.3,3.9-3.4,4.1
		c-1.9,0.2-3.5-1-4-2.8C52.7,6.6,52.7,6.4,52.7,6.2"/>
	<path class="st0" d="M41.5,10.8c-0.5-2,0.6-4.1,2.7-4.6l0,0c2-0.6,4.1,0.6,4.6,2.7c0.5,2-0.6,4.1-2.7,4.6c-1.8,0.5-3.7-0.4-4.4-2.1
		C41.6,11.2,41.5,11,41.5,10.8"/>
	<path class="st1" d="M31.3,17.3c-0.9-1.9-0.1-4.1,1.9-5l0,0c1.9-0.9,4.1-0.1,5,1.8c0.9,1.9,0.1,4.1-1.8,5c-1.7,0.8-3.7,0.2-4.7-1.3
		C31.5,17.6,31.4,17.5,31.3,17.3"/>
	<path class="st0" d="M9,45.5c-1.7-1.2-2.1-3.6-0.8-5.3l0,0c1.2-1.7,3.6-2.1,5.3-0.8c1.7,1.2,2.1,3.6,0.8,5.3
		c-1.1,1.5-3.1,2-4.7,1.2C9.3,45.7,9.2,45.6,9,45.5"/>
	<path class="st1" d="M5.1,57c-1.9-0.9-2.6-3.2-1.7-5.1l0,0c0.9-1.9,3.2-2.6,5-1.7c1.9,0.9,2.6,3.2,1.7,5c-0.8,1.7-2.7,2.5-4.5,1.9
		C5.5,57.1,5.3,57.1,5.1,57"/>
	<path class="st3" d="M3.3,81.1c-2.1-0.3-3.5-2.1-3.3-4.2v0c0.2-2.1,2.1-3.6,4.2-3.3c2.1,0.2,3.5,2.1,3.3,4.2
		c-0.2,1.9-1.8,3.2-3.6,3.3C3.7,81.1,3.5,81.1,3.3,81.1"/>
	<path class="st3" d="M5.5,93c-2.1,0.1-3.9-1.5-4-3.6l0,0c-0.1-2.1,1.5-3.9,3.6-4C7.2,85.3,9,86.9,9.1,89c0.1,1.9-1.2,3.5-3,3.9
		C5.9,92.9,5.7,92.9,5.5,93"/>
	<path class="st3" d="M15.7,114.8c-1.9,0.8-4.1-0.1-4.9-2.1l0,0c-0.8-1.9,0.1-4.1,2-4.9c1.9-0.8,4.1,0.1,4.9,2.1
		c0.7,1.7,0,3.7-1.5,4.7C16,114.7,15.9,114.8,15.7,114.8"/>
	<path class="st3" d="M23.4,124.2c-1.8,1.1-4.1,0.6-5.2-1.2l0,0c-1.1-1.8-0.6-4.1,1.2-5.2c1.8-1.1,4.1-0.6,5.2,1.2
		c1,1.6,0.7,3.6-0.7,4.8C23.7,123.9,23.5,124.1,23.4,124.2"/>
	<path class="st3" d="M32.5,132.1c-1.6,1.4-3.9,1.3-5.3-0.3l0,0c-1.4-1.6-1.3-3.9,0.3-5.3c1.5-1.4,3.9-1.3,5.3,0.3
		c1.3,1.4,1.3,3.5,0.1,4.9C32.8,131.8,32.7,131.9,32.5,132.1"/>
	<path class="st3" d="M66,145.1c-0.7,2-2.8,3-4.8,2.3l0,0c-2-0.7-3-2.8-2.3-4.8c0.7-2,2.8-3,4.8-2.3c1.8,0.6,2.8,2.4,2.5,4.2
		C66.1,144.7,66.1,144.9,66,145.1"/>
	<path class="st3" d="M78.1,145.5c-0.3,2.1-2.3,3.5-4.3,3.1h0c-2.1-0.3-3.5-2.3-3.1-4.3c0.3-2.1,2.3-3.5,4.3-3.1
		c1.9,0.3,3.2,1.9,3.2,3.7C78.1,145.1,78.1,145.3,78.1,145.5"/>
	<path class="st3" d="M90.1,143.8c0,2.1-1.7,3.8-3.7,3.8l0,0c-2.1,0-3.8-1.7-3.8-3.7c0-2.1,1.7-3.8,3.7-3.8c1.9,0,3.4,1.3,3.8,3.1
		C90,143.4,90.1,143.6,90.1,143.8"/>
	<path class="st0" d="M136.9,108.4c1.6,1.4,1.8,3.8,0.4,5.3l0,0c-1.4,1.6-3.7,1.8-5.3,0.4c-1.6-1.4-1.8-3.8-0.4-5.3
		c1.2-1.4,3.3-1.7,4.8-0.8C136.6,108.1,136.7,108.2,136.9,108.4"/>
	<path class="st1" d="M141.7,97.3c1.8,1.1,2.4,3.4,1.3,5.2l0,0c-1.1,1.8-3.4,2.4-5.2,1.3c-1.8-1.1-2.4-3.4-1.3-5.2
		c1-1.6,2.9-2.2,4.6-1.6C141.4,97.1,141.6,97.2,141.7,97.3"/>
	<path class="st3" d="M144.7,85.5c1.9,0.8,2.9,3,2.1,4.9l0,0c-0.8,2-2.9,2.9-4.9,2.1c-1.9-0.8-2.9-3-2.1-4.9
		c0.7-1.8,2.5-2.7,4.3-2.3C144.3,85.4,144.5,85.4,144.7,85.5"/>
	<path class="st3" d="M144.4,61.4c2.1,0.1,3.7,1.8,3.6,3.9l0,0c-0.1,2.1-1.8,3.7-3.9,3.7c-2.1-0.1-3.7-1.8-3.6-3.9
		c0.1-1.9,1.5-3.4,3.3-3.6C144,61.4,144.2,61.4,144.4,61.4"/>
	<path class="st1" d="M141.2,49.7c2.1-0.3,4,1.2,4.2,3.2l0,0c0.3,2.1-1.2,4-3.2,4.3c-2.1,0.3-4-1.2-4.2-3.2
		c-0.3-1.9,0.9-3.6,2.6-4.1C140.8,49.8,141,49.7,141.2,49.7"/>
	<path class="st1" d="M129.2,28.8c1.9-0.9,4.1-0.2,5.1,1.6l0,0c1,1.9,0.2,4.1-1.6,5.1c-1.8,1-4.1,0.2-5.1-1.6
		c-0.9-1.7-0.4-3.7,1.1-4.8C128.9,29,129.1,28.9,129.2,28.8"/>
	<path class="st1" d="M120.8,20.1c1.7-1.2,4-0.9,5.3,0.8l0,0c1.3,1.7,0.9,4-0.7,5.3c-1.7,1.3-4,0.9-5.3-0.7c-1.1-1.5-1-3.6,0.3-4.9
		C120.5,20.4,120.6,20.2,120.8,20.1"/>
	<path class="st3" d="M100.1,7.7c1.2-1.7,3.5-2.2,5.2-1l0,0c1.7,1.2,2.2,3.5,1.1,5.2c-1.1,1.7-3.5,2.2-5.2,1.1c-1.6-1-2.1-3-1.4-4.7
		C99.9,8,100,7.9,100.1,7.7"/>
	<path class="st3" d="M88.5,4.3c0.8-1.9,3.1-2.8,5-1.9l0,0c1.9,0.8,2.8,3.1,1.9,5c-0.8,1.9-3.1,2.8-5,1.9c-1.7-0.8-2.6-2.6-2.1-4.4
		C88.4,4.6,88.4,4.5,88.5,4.3"/>
	<path class="st1" d="M130.2,118.5c1.3,1.6,1.1,4-0.5,5.3l0,0c-1.6,1.3-4,1.1-5.3-0.5c-1.3-1.6-1.1-4,0.5-5.3
		c1.4-1.2,3.5-1.1,4.9,0.1C130,118.2,130.1,118.3,130.2,118.5"/>
	<path class="st3" d="M54.1,142.7c-1,1.8-3.3,2.5-5.1,1.5l0,0c-1.8-1-2.5-3.3-1.5-5.1c1-1.8,3.3-2.5,5.1-1.5
		c1.6,0.9,2.4,2.8,1.7,4.6C54.3,142.3,54.2,142.5,54.1,142.7"/>
	<path class="st0" d="M189.7,109.5c-0.5,0-1.1-0.3-1.1-1V80.1c0-0.7,0.6-1.1,1.1-1.1c0.5,0,1.1,0.3,1.1,1.1v28.3
		C190.8,109.2,190.2,109.5,189.7,109.5"/>
	<path class="st0" d="M216.9,109.5h-0.8c-0.3,0-0.9-0.2-1.1-0.7l-11.2-25.5v25.2c0,0.7-0.6,1-1.1,1s-1.1-0.3-1.1-1V80.1
		c0-0.6,0.5-1.1,1.1-1.1h0.8c0.3,0,0.7,0.2,1,0.7l11.3,25.6V80.1c0-0.7,0.6-1.1,1.1-1.1c0.5,0,1.1,0.3,1.1,1.1v28.3
		C218,109.1,217.5,109.5,216.9,109.5"/>
	<path class="st0" d="M238.9,81.4h-5.6v27c0,0.7-0.5,1-1.1,1c-0.5,0-1-0.3-1-1v-27h-5.6c-0.7,0-1.1-0.5-1.1-1c0-0.6,0.3-1.1,1.1-1.1
		h13.3c0.7,0,1.1,0.5,1.1,1.1C240,80.9,239.7,81.4,238.9,81.4"/>
	<path class="st0" d="M261.8,109.3h-14.2c-0.7,0-1.1-0.5-1.1-1.1V80.4c0-0.6,0.4-1.1,1.1-1.1h14.2c0.7,0,1.1,0.5,1.1,1.1
		c0,0.5-0.3,1-1.1,1H249v11.2h9.1c0.7,0,1.1,0.6,1.1,1.1c0,0.5-0.3,1-1.1,1h-9.3v12.3h13.1c0.7,0,1.1,0.5,1.1,1
		C262.9,108.8,262.6,109.3,261.8,109.3"/>
	<path class="st0" d="M284.7,87.3c0-3.3-2.6-5.8-5.8-5.8h-6.5v12.1h6.5c3.3,0,5.8-2.5,5.8-5.8V87.3L284.7,87.3z M280.4,95.5
		l5.9,12.5c0.1,0.2,0.1,0.3,0.1,0.5c0,0.7-0.6,1-1.1,1c-0.4,0-0.7-0.2-0.9-0.6l-6.3-13.3h-5.7v12.8c0,0.7-0.5,1-1.1,1
		c-0.5,0-1-0.3-1-1V80.4c0-0.6,0.5-1.1,1-1.1h7.6c4.4,0,7.9,3.6,7.9,7.9v0.4C286.8,91.6,284.2,94.8,280.4,95.5"/>
	<path class="st0" d="M310.5,109.5h-0.8c-0.3,0-0.9-0.2-1.1-0.7l-11.2-25.5v25.2c0,0.7-0.6,1-1.1,1c-0.5,0-1.1-0.3-1.1-1V80.1
		c0-0.6,0.5-1.1,1.1-1.1h0.8c0.3,0,0.7,0.2,1,0.7l11.3,25.6V80.1c0-0.7,0.6-1.1,1.1-1.1c0.5,0,1.1,0.3,1.1,1.1v28.3
		C311.5,109.1,311,109.5,310.5,109.5"/>
	<path class="st0" d="M329.1,83.4l-5.3,16.3h10.6L329.1,83.4L329.1,83.4z M338.3,109.5c-0.5,0-0.8-0.3-1-0.7l-2.3-6.9h-11.9
		l-2.2,6.9c-0.1,0.5-0.5,0.7-1,0.7c-0.6,0-1.1-0.3-1.1-1c0-0.1,0-0.3,0-0.3l9.2-28.3c0.2-0.6,0.6-0.8,1-0.8c0.5,0,0.8,0.3,1,0.8
		l9.2,28.3c0,0.1,0,0.2,0,0.3C339.4,109.2,338.9,109.5,338.3,109.5"/>
	<path class="st0" d="M357.3,81.4h-5.6v27c0,0.7-0.5,1-1.1,1c-0.5,0-1-0.3-1-1v-27H344c-0.7,0-1.1-0.5-1.1-1c0-0.6,0.3-1.1,1.1-1.1
		h13.3c0.7,0,1.1,0.5,1.1,1.1C358.4,80.9,358.1,81.4,357.3,81.4"/>
	<path class="st0" d="M366.6,109.5c-0.5,0-1.1-0.3-1.1-1V80.1c0-0.7,0.6-1.1,1.1-1.1c0.5,0,1.1,0.3,1.1,1.1v28.3
		C367.7,109.2,367.1,109.5,366.6,109.5"/>
	<path class="st0" d="M392,87c0-3.3-2.6-5.8-5.8-5.8h-0.4c-3.3,0-5.8,2.6-5.8,5.8v14.6c0,3.3,2.6,5.8,5.8,5.8h0.4
		c3.3,0,5.8-2.6,5.8-5.8V87L392,87z M386.2,109.5h-0.4c-4.4,0-7.9-3.5-7.9-7.9V87c0-4.4,3.6-7.9,7.9-7.9h0.4c4.4,0,7.9,3.5,7.9,7.9
		v14.6C394.1,106,390.5,109.5,386.2,109.5"/>
	<path class="st0" d="M419,109.5h-0.8c-0.3,0-0.9-0.2-1.1-0.7l-11.2-25.5v25.2c0,0.7-0.6,1-1.1,1c-0.5,0-1.1-0.3-1.1-1V80.1
		c0-0.6,0.5-1.1,1.1-1.1h0.8c0.3,0,0.7,0.2,1,0.7l11.3,25.6V80.1c0-0.7,0.6-1.1,1.1-1.1s1.1,0.3,1.1,1.1v28.3
		C420.1,109.1,419.6,109.5,419,109.5"/>
	<path class="st0" d="M437.7,83.4l-5.3,16.3h10.6L437.7,83.4L437.7,83.4z M446.9,109.5c-0.5,0-0.8-0.3-1-0.7l-2.3-6.9h-11.9
		l-2.2,6.9c-0.1,0.5-0.5,0.7-1,0.7c-0.6,0-1.1-0.3-1.1-1c0-0.1,0-0.3,0-0.3l9.2-28.3c0.2-0.6,0.6-0.8,1-0.8c0.5,0,0.8,0.3,1,0.8
		l9.2,28.3c0,0.1,0,0.2,0,0.3C448,109.2,447.4,109.5,446.9,109.5"/>
	<path class="st0" d="M468.7,109.3h-12.3c-0.6,0-1.1-0.5-1.1-1.1V80.1c0-0.7,0.5-1.1,1.1-1.1c0.6,0,1.1,0.3,1.1,1.1v27h11.2
		c0.7,0,1.1,0.5,1.1,1C469.8,108.7,469.5,109.3,468.7,109.3"/>
	<path class="st0" d="M500.4,109.5H500c-4.3,0-8-2.9-8-7.9c0-0.7,0.5-1.1,1.1-1.1c0.6,0,1.1,0.3,1.1,1.1c0,3.6,2.6,5.8,5.8,5.8h0.4
		c3.4,0,6-2,6-5.3c0-8.8-13.9-6.2-13.9-15.6c0-4.5,3.5-7.4,7.5-7.4h0.4c4.2,0,7.6,2.4,7.6,6.7c0,0.7-0.5,1-1,1
		c-0.5,0-1.1-0.3-1.1-1.1c0-3-2.3-4.5-5.5-4.5H500c-2.9,0-5.4,2-5.4,5.3c0,7.3,14,5.4,14,15.5C508.6,106.6,505,109.5,500.4,109.5"/>
	<path class="st0" d="M530.4,87c0-3.3-2.6-5.8-5.8-5.8h-0.4c-3.3,0-5.8,2.6-5.8,5.8v14.6c0,3.3,2.6,5.8,5.8,5.8h0.4
		c3.3,0,5.8-2.6,5.8-5.8V87L530.4,87z M524.5,109.5h-0.4c-4.4,0-7.9-3.5-7.9-7.9V87c0-4.4,3.6-7.9,7.9-7.9h0.4
		c4.4,0,7.9,3.5,7.9,7.9v14.6C532.5,106,528.9,109.5,524.5,109.5"/>
	<path class="st0" d="M549.8,109.5h-0.4c-4.4,0-8-3.5-8-7.9V87c0-4.4,3.6-7.9,8-7.9h0.4c4,0,7.4,3,7.9,6.8V86c0,0.7-0.5,1.1-1,1.1
		c-0.5,0-1-0.4-1.1-0.9c-0.3-2.8-2.8-5-5.7-5h-0.4c-3.3,0-5.9,2.6-5.9,5.8v14.6c0,3.3,2.6,5.8,5.9,5.8h0.4c3,0,5.4-2.2,5.7-5
		c0.1-0.5,0.6-0.9,1.1-0.9c0.6,0,1,0.4,1,1.1v0.1C557.1,106.7,553.8,109.5,549.8,109.5"/>
	<path class="st0" d="M567.1,109.5c-0.5,0-1.1-0.3-1.1-1V80.1c0-0.7,0.6-1.1,1.1-1.1c0.5,0,1.1,0.3,1.1,1.1v28.3
		C568.2,109.2,567.6,109.5,567.1,109.5"/>
	<path class="st0" d="M594.2,109.3h-14.2c-0.6,0-1.1-0.5-1.1-1.1V80.4c0-0.6,0.4-1.1,1.1-1.1h14.2c0.7,0,1.1,0.5,1.1,1.1
		c0,0.5-0.3,1-1.1,1h-12.9v11.2h9.1c0.7,0,1.1,0.6,1.1,1.1c0,0.5-0.3,1-1.1,1h-9.3v12.3h13.1c0.7,0,1.1,0.5,1.1,1
		C595.3,108.8,595,109.3,594.2,109.3"/>
	<path class="st0" d="M613.3,81.4h-5.6v27c0,0.7-0.5,1-1.1,1c-0.5,0-1-0.3-1-1v-27h-5.6c-0.7,0-1.1-0.5-1.1-1c0-0.6,0.3-1.1,1.1-1.1
		h13.3c0.7,0,1.1,0.5,1.1,1.1C614.3,80.9,614,81.4,613.3,81.4"/>
	<path class="st0" d="M635,80.5l-7.2,17.2v10.8c0,0.7-0.6,1-1.1,1c-0.5,0-1.1-0.3-1.1-1V97.7l-7.2-17.2c0-0.1-0.1-0.2-0.1-0.4
		c0-0.7,0.6-1,1.1-1c0.5,0,0.8,0.2,1,0.7l6.2,15l6.2-15c0.2-0.4,0.5-0.7,1-0.7c0.6,0,1.1,0.4,1.1,1C635.1,80.2,635,80.3,635,80.5"/>
	<path class="st0" d="M203.3,120.8h-13.1v11.2h9.3c0.7,0,1.1,0.5,1.1,1.1c0,0.6-0.3,1.1-1.1,1.1h-9.3v13.6c0,0.7-0.5,1-1,1
		c-0.5,0-1.1-0.3-1.1-1v-28.1c0-0.6,0.4-1.1,1.1-1.1h14.2c0.7,0,1.1,0.5,1.1,1C204.4,120.3,204.1,120.8,203.3,120.8"/>
	<path class="st0" d="M223.6,126.4c0-3.3-2.6-5.8-5.8-5.8h-0.4c-3.3,0-5.8,2.6-5.8,5.8V141c0,3.3,2.6,5.8,5.8,5.8h0.4
		c3.3,0,5.8-2.6,5.8-5.8V126.4L223.6,126.4z M217.8,148.9h-0.4c-4.4,0-7.9-3.5-7.9-7.9v-14.6c0-4.4,3.6-7.9,7.9-7.9h0.4
		c4.4,0,7.9,3.5,7.9,7.9V141C225.8,145.4,222.2,148.9,217.8,148.9"/>
	<path class="st0" d="M249.9,126.6c0-3.3-2.6-5.8-5.8-5.8h-6.5v12.1h6.5c3.3,0,5.8-2.5,5.8-5.8V126.6L249.9,126.6z M245.5,134.9
		l5.9,12.5c0.1,0.2,0.1,0.3,0.1,0.5c0,0.7-0.6,1-1.1,1c-0.4,0-0.7-0.2-0.9-0.6l-6.3-13.3h-5.7v12.8c0,0.7-0.5,1-1.1,1
		c-0.5,0-1-0.3-1-1v-28.1c0-0.6,0.5-1.1,1-1.1h7.6c4.4,0,7.9,3.6,7.9,7.9v0.4C252,131,249.3,134.2,245.5,134.9"/>
	<path class="st0" d="M278.8,148.9c-0.5,0-1.1-0.3-1.1-1v-28.3c0-0.7,0.6-1.1,1.1-1.1c0.5,0,1.1,0.3,1.1,1.1v28.3
		C279.9,148.6,279.3,148.9,278.8,148.9"/>
	<path class="st0" d="M406.8,148.9c-0.5,0-1.1-0.3-1.1-1v-28.3c0-0.7,0.6-1.1,1.1-1.1c0.5,0,1.1,0.3,1.1,1.1v28.3
		C407.9,148.6,407.3,148.9,406.8,148.9"/>
	<path class="st0" d="M306,148.9h-0.8c-0.3,0-0.9-0.2-1.1-0.7l-11.2-25.5v25.2c0,0.7-0.6,1-1.1,1c-0.5,0-1.1-0.3-1.1-1v-28.3
		c0-0.6,0.5-1.1,1.1-1.1h0.8c0.3,0,0.7,0.2,1,0.7l11.3,25.6v-25.2c0-0.7,0.6-1.1,1.1-1.1c0.5,0,1.1,0.3,1.1,1.1v28.3
		C307.1,148.5,306.6,148.9,306,148.9"/>
	<path class="st0" d="M332.7,120.8h-13.1v11.2h9.3c0.7,0,1.1,0.5,1.1,1.1c0,0.6-0.3,1.1-1.1,1.1h-9.3v13.6c0,0.7-0.5,1-1,1
		c-0.5,0-1.1-0.3-1.1-1v-28.1c0-0.6,0.4-1.1,1.1-1.1h14.2c0.7,0,1.1,0.5,1.1,1C333.8,120.3,333.4,120.8,332.7,120.8"/>
	<path class="st0" d="M354.8,148.7h-14.2c-0.6,0-1.1-0.5-1.1-1.1v-27.8c0-0.6,0.4-1.1,1.1-1.1h14.2c0.7,0,1.1,0.5,1.1,1.1
		c0,0.5-0.3,1-1.1,1h-12.9v11.2h9.1c0.7,0,1.1,0.6,1.1,1.1c0,0.5-0.3,1-1.1,1h-9.3v12.3h13.1c0.7,0,1.1,0.5,1.1,1
		C355.9,148.2,355.6,148.7,354.8,148.7"/>
	<path class="st0" d="M370.9,148.9h-0.4c-4.4,0-8-3.5-8-7.9v-14.6c0-4.4,3.6-7.9,8-7.9h0.4c4,0,7.4,3,7.9,6.8v0.1
		c0,0.7-0.5,1.1-1,1.1c-0.5,0-1-0.4-1.1-0.9c-0.3-2.8-2.8-5-5.7-5h-0.4c-3.3,0-5.9,2.6-5.9,5.8V141c0,3.3,2.6,5.8,5.9,5.8h0.4
		c3,0,5.4-2.2,5.7-5c0.1-0.5,0.6-0.9,1.1-0.9c0.6,0,1,0.4,1,1.1v0.1C378.3,146,374.9,148.9,370.9,148.9"/>
	<path class="st0" d="M397.2,120.8h-5.6v27c0,0.7-0.5,1-1.1,1c-0.5,0-1-0.3-1-1v-27h-5.6c-0.7,0-1.1-0.5-1.1-1
		c0-0.6,0.3-1.1,1.1-1.1h13.3c0.7,0,1.1,0.5,1.1,1.1C398.3,120.3,397.9,120.8,397.2,120.8"/>
	<path class="st0" d="M432,126.4c0-3.3-2.6-5.8-5.8-5.8h-0.4c-3.3,0-5.8,2.6-5.8,5.8V141c0,3.3,2.6,5.8,5.8,5.8h0.4
		c3.3,0,5.8-2.6,5.8-5.8V126.4L432,126.4z M426.1,148.9h-0.4c-4.4,0-7.9-3.5-7.9-7.9v-14.6c0-4.4,3.6-7.9,7.9-7.9h0.4
		c4.4,0,7.9,3.5,7.9,7.9V141C434.1,145.4,430.5,148.9,426.1,148.9"/>
	<path class="st0" d="M452.1,148.9h-0.4c-4.4,0-7.9-3.5-7.9-7.9v-21.5c0-0.7,0.5-1.1,1.1-1.1c0.5,0,1,0.3,1,1.1V141
		c0,3.3,2.6,5.8,5.8,5.8h0.4c3.3,0,5.8-2.6,5.8-5.8v-21.5c0-0.7,0.5-1.1,1-1.1c0.6,0,1.1,0.3,1.1,1.1V141
		C460,145.4,456.5,148.9,452.1,148.9"/>
	<path class="st0" d="M476.8,148.9h-0.4c-4.3,0-8-2.9-8-7.9c0-0.7,0.5-1.1,1.1-1.1s1.1,0.3,1.1,1.1c0,3.6,2.6,5.8,5.8,5.8h0.4
		c3.4,0,6-2,6-5.3c0-8.8-13.9-6.2-13.9-15.6c0-4.5,3.5-7.4,7.5-7.4h0.4c4.2,0,7.6,2.4,7.6,6.7c0,0.7-0.5,1-1,1
		c-0.5,0-1.1-0.3-1.1-1.1c0-3-2.3-4.5-5.5-4.5h-0.4c-2.9,0-5.4,2-5.4,5.3c0,7.3,14,5.4,14,15.5C485,146,481.4,148.9,476.8,148.9"/>
	<path class="st0" d="M524.3,126.6c0-3.3-2.6-5.8-5.8-5.8h-6.2v25.7h6.2c3.3,0,5.8-2.6,5.8-5.8V126.6L524.3,126.6z M518.5,148.7
		h-7.3c-0.7,0-1.1-0.5-1.1-1.1v-27.8c0-0.6,0.4-1.1,1.1-1.1h7.3c4.4,0,7.9,3.5,7.9,7.9v14.1C526.4,145.1,522.8,148.7,518.5,148.7"/>
	<path class="st0" d="M537.6,148.9c-0.5,0-1.1-0.3-1.1-1v-28.3c0-0.7,0.6-1.1,1.1-1.1c0.5,0,1.1,0.3,1.1,1.1v28.3
		C538.7,148.6,538.1,148.9,537.6,148.9"/>
	<path class="st0" d="M555.9,148.9h-0.4c-4.3,0-8-2.9-8-7.9c0-0.7,0.5-1.1,1.1-1.1c0.6,0,1.1,0.3,1.1,1.1c0,3.6,2.6,5.8,5.8,5.8h0.4
		c3.4,0,6-2,6-5.3c0-8.8-13.9-6.2-13.9-15.6c0-4.5,3.5-7.4,7.5-7.4h0.4c4.2,0,7.6,2.4,7.6,6.7c0,0.7-0.5,1-1,1
		c-0.5,0-1.1-0.3-1.1-1.1c0-3-2.3-4.5-5.5-4.5h-0.4c-2.9,0-5.4,2-5.4,5.3c0,7.3,14,5.4,14,15.5C564.1,146,560.5,148.9,555.9,148.9"
		/>
	<path class="st0" d="M587.7,148.7h-14.2c-0.6,0-1.1-0.5-1.1-1.1v-27.8c0-0.6,0.4-1.1,1.1-1.1h14.2c0.7,0,1.1,0.5,1.1,1.1
		c0,0.5-0.3,1-1.1,1h-12.9v11.2h9.1c0.7,0,1.1,0.6,1.1,1.1c0,0.5-0.3,1-1.1,1h-9.3v12.3h13.1c0.7,0,1.1,0.5,1.1,1
		C588.8,148.2,588.4,148.7,587.7,148.7"/>
	<path class="st0" d="M603.4,122.8l-5.3,16.3h10.6L603.4,122.8L603.4,122.8z M612.6,148.9c-0.5,0-0.8-0.3-1-0.7l-2.3-6.9h-11.9
		l-2.2,6.9c-0.1,0.5-0.5,0.7-1,0.7c-0.6,0-1.1-0.3-1.1-1c0-0.1,0-0.3,0-0.3l9.2-28.3c0.2-0.6,0.6-0.8,1-0.8c0.5,0,0.8,0.3,1,0.8
		l9.2,28.3c0,0.1,0,0.2,0,0.3C613.7,148.6,613.1,148.9,612.6,148.9"/>
	<path class="st0" d="M627.4,148.9h-0.4c-4.3,0-8-2.9-8-7.9c0-0.7,0.5-1.1,1.1-1.1c0.6,0,1.1,0.3,1.1,1.1c0,3.6,2.6,5.8,5.8,5.8h0.4
		c3.4,0,6-2,6-5.3c0-8.8-13.9-6.2-13.9-15.6c0-4.5,3.5-7.4,7.5-7.4h0.4c4.2,0,7.6,2.4,7.6,6.7c0,0.7-0.5,1-1,1
		c-0.5,0-1.1-0.3-1.1-1.1c0-3-2.3-4.5-5.5-4.5h-0.4c-2.9,0-5.4,2-5.4,5.3c0,7.3,14,5.4,14,15.5C635.5,146,632,148.9,627.4,148.9"/>
	<path class="st0" d="M659.1,148.7H645c-0.6,0-1.1-0.5-1.1-1.1v-27.8c0-0.6,0.4-1.1,1.1-1.1h14.2c0.7,0,1.1,0.5,1.1,1.1
		c0,0.5-0.3,1-1.1,1h-12.9v11.2h9.1c0.7,0,1.1,0.6,1.1,1.1c0,0.5-0.3,1-1.1,1H646v12.3h13.1c0.7,0,1.1,0.5,1.1,1
		C660.2,148.2,659.9,148.7,659.1,148.7"/>
	<path class="st0" d="M673.9,148.9h-0.4c-4.3,0-8-2.9-8-7.9c0-0.7,0.5-1.1,1.1-1.1s1.1,0.3,1.1,1.1c0,3.6,2.6,5.8,5.8,5.8h0.4
		c3.4,0,6-2,6-5.3c0-8.8-13.9-6.2-13.9-15.6c0-4.5,3.5-7.4,7.5-7.4h0.4c4.2,0,7.6,2.4,7.6,6.7c0,0.7-0.5,1-1,1
		c-0.5,0-1.1-0.3-1.1-1.1c0-3-2.3-4.5-5.5-4.5h-0.4c-2.9,0-5.4,2-5.4,5.3c0,7.3,14,5.4,14,15.5C682.1,146,678.5,148.9,673.9,148.9"
		/>
	<path class="st0" d="M217.3,17.4c-0.4-1-1-1.9-1.8-2.7c-0.8-0.8-1.7-1.4-2.7-1.8c-1-0.4-2.1-0.7-3.3-0.7h-9.3v16.9h9.3
		c2.3,0,4.3-0.8,6-2.5c1.6-1.7,2.5-3.7,2.5-6C217.9,19.5,217.7,18.4,217.3,17.4 M228,28.5c-1.1,2.4-2.5,4.6-4.3,6.4
		c-1.8,1.8-3.9,3.2-6.4,4.3c-2.4,1-5,1.6-7.8,1.6h-9.3v24c0,1.9-0.6,3.4-1.8,4.4c-1.2,1-2.5,1.5-4,1.5c-1.5,0-2.8-0.5-4-1.5
		c-1.2-1-1.8-2.4-1.8-4.4V6.5c0-1.5,0.6-2.9,1.8-4.1c1.2-1.2,2.5-1.8,4.1-1.8h15.1c2.7,0,5.3,0.5,7.8,1.6c2.4,1,4.6,2.5,6.4,4.3
		c1.8,1.8,3.2,3.9,4.3,6.4c1.1,2.4,1.6,5,1.6,7.8C229.6,23.4,229,26,228,28.5"/>
	<path class="st0" d="M264.5,32c-0.6,1.3-1.5,2.4-2.7,3.1c-1.2,0.7-2.6,1-4.1,0.9c-1.5-0.1-2.7-0.9-3.6-2.2c-0.5-0.7-0.9-1-1.2-1.1
		c-0.3-0.1-0.9-0.1-1.8-0.1c-2.1,0-3.1,0.9-3.1,2.8v29.3c0,1.9-0.6,3.4-1.8,4.4c-1.2,1-2.5,1.5-4,1.5c-1.5,0-2.8-0.5-4-1.5
		c-1.2-1-1.8-2.5-1.8-4.4v-38c0-1.9,0.6-3.3,1.8-4.2c1.2-0.9,2.5-1.4,4.1-1.4c1.5,0,2.6,0.2,3.5,0.5c0.8,0.3,1.6,0.9,2.4,1.6
		c1.9-1.4,3.8-2.1,5.8-2.1c2.1,0,4,0.6,5.8,1.7c1.8,1.1,3.2,2.7,4.4,4.9C264.9,29.2,265,30.7,264.5,32"/>
	<path class="st0" d="M293.8,37.9c0-1.5-0.5-2.8-1.6-3.9c-1-1-2.3-1.6-3.9-1.6h-0.8c-1.5,0-2.8,0.5-3.9,1.6c-1,1-1.6,2.3-1.6,3.9
		v15.6c0,1.5,0.5,2.8,1.6,3.9c1,1,2.3,1.6,3.9,1.6h0.8c1.5,0,2.8-0.5,3.9-1.6c1-1,1.6-2.3,1.6-3.9V37.9L293.8,37.9z M304,60.2
		c-0.9,2.1-2.1,3.9-3.7,5.4c-1.5,1.5-3.3,2.7-5.4,3.6c-2.1,0.9-4.3,1.3-6.6,1.3h-0.8c-2.3,0-4.5-0.4-6.6-1.3
		c-2.1-0.9-3.9-2.1-5.4-3.6c-1.5-1.5-2.8-3.3-3.7-5.4c-0.9-2.1-1.4-4.3-1.4-6.6V37.9c0-2.3,0.5-4.5,1.4-6.6c0.9-2.1,2.1-3.9,3.7-5.4
		c1.5-1.5,3.3-2.7,5.4-3.6c2.1-0.9,4.3-1.3,6.6-1.3h0.8c2.3,0,4.5,0.4,6.6,1.3c2.1,0.9,3.9,2.1,5.4,3.6c1.5,1.5,2.8,3.3,3.7,5.4
		c0.9,2.1,1.4,4.3,1.4,6.6v15.6C305.4,55.9,304.9,58.1,304,60.2"/>
	<path class="st0" d="M368.4,69.1c-1.2,1-2.5,1.5-4,1.5c-1.5,0-2.8-0.5-4-1.5c-1.2-1-1.8-2.4-1.8-4.4V28l-8.5,19.6
		c-0.7,1.7-1.7,2.7-2.8,3.2c-1.1,0.5-2.2,0.7-3.1,0.7c-0.9,0-2-0.2-3.1-0.7c-1.1-0.5-2.1-1.5-2.8-3.2L329.7,28v36.7
		c0,1.9-0.6,3.4-1.8,4.4c-1.2,1-2.5,1.5-4,1.5c-1.5,0-2.8-0.5-4-1.5c-1.2-1-1.8-2.4-1.8-4.4V5.9c0-1.5,0.6-2.9,1.8-4.1
		c1.2-1.2,2.5-1.8,4.1-1.8h1.5c1.9,0,3.2,0.5,4.1,1.5c0.9,1,1.6,2.2,2.2,3.5l12.4,28.1l12.4-28.1c0.5-1.3,1.3-2.5,2.2-3.5
		c0.9-1,2.3-1.5,4.2-1.5h1.5c1.5,0,2.9,0.6,4.1,1.8c1.2,1.2,1.8,2.5,1.8,4.1v58.8C370.2,66.6,369.6,68.1,368.4,69.1"/>
	<path class="st0" d="M420.9,68.1c-1,1.2-2.4,1.8-4.4,1.8h-29.4c-1.5,0-2.9-0.6-4.1-1.8c-1.2-1.2-1.8-2.5-1.8-4.1V6.5
		c0-1.5,0.6-2.9,1.8-4.1c1.2-1.2,2.5-1.8,4.1-1.8h29.4c1.9,0,3.4,0.6,4.4,1.8c1,1.2,1.5,2.5,1.5,3.9c0,1.5-0.5,2.8-1.5,4
		c-1,1.2-2.4,1.8-4.4,1.8H393v16.3h15.6c1.9,0,3.4,0.6,4.4,1.8c1,1.2,1.5,2.5,1.5,4c0,1.4-0.5,2.7-1.5,3.9c-1,1.2-2.4,1.8-4.4,1.8
		H393v18.3h23.5c1.9,0,3.4,0.6,4.4,1.8c1,1.2,1.5,2.5,1.5,4C422.3,65.6,421.8,66.9,420.9,68.1"/>
	<path class="st0" d="M460.4,20.3c0-2.3-0.8-4.3-2.5-5.8c-1.6-1.5-3.6-2.3-6-2.3h-9.3v46.2h9.3c2.3,0,4.3-0.8,6-2.3
		c1.6-1.5,2.5-3.5,2.5-5.8V20.3L460.4,20.3z M470.5,58c-1,2.4-2.5,4.5-4.3,6.3c-1.8,1.8-3.9,3.2-6.4,4.2c-2.4,1-5.1,1.5-7.9,1.5
		h-15.1c-1.5,0-2.9-0.6-4.1-1.8c-1.2-1.2-1.8-2.5-1.8-4.1V6.5c0-1.5,0.6-2.9,1.8-4.1c1.2-1.2,2.5-1.8,4.1-1.8H452
		c2.8,0,5.4,0.5,7.9,1.5c2.4,1,4.6,2.4,6.4,4.2c1.8,1.8,3.2,3.8,4.3,6.2c1,2.4,1.6,5,1.6,7.8v29.9C472,53,471.5,55.6,470.5,58"/>
	<path class="st0" d="M249.8,32.2c-1.4,0.3-2.3,1.5-2.3,3.4v29.1c0,1.9-0.6,3.4-1.8,4.4c-1.2,1-2.5,1.5-4,1.5c-1.5,0-2.8-0.5-4-1.5
		c-1.2-1-1.8-2.5-1.8-4.4v-38c0-1.9,0.6-3.3,1.8-4.2c1.2-0.9,2.5-1.4,4.1-1.4c1.5,0,2.6,0.2,3.5,0.5c0.8,0.3,1.6,0.9,2.4,1.6
		c1.9-1.4,4.1-2.1,6.1-2.1c2.1,0,4.3,0.5,6,1.7c1.7,1.2,2.8,2.4,3.7,4.7c0.7,1.7,0.8,3.2,0.5,4.8c-0.3,1.4-0.9,2.1-2.1,3
		c-0.9,0.6-2.9,1.1-4.4,1.1c-1.3-0.1-2.9-1-3.5-2.3C252.9,31.8,250.9,31.9,249.8,32.2"/>
</g>
</svg>
