<?xml version="1.0" encoding="utf-8"?>
<!-- Generator: Adobe Illustrator 22.1.0, SVG Export Plug-In . SVG Version: 6.00 Build 0)  -->
<svg version="1.1" id="Layer_1" xmlns="http://www.w3.org/2000/svg" xmlns:xlink="http://www.w3.org/1999/xlink" x="0px" y="0px"
	 viewBox="0 0 654 154" style="enable-background:new 0 0 654 154;" xml:space="preserve">
<style type="text/css">
	.st0{fill:#231F20;}
	.st1{fill:none;stroke:#231F20;stroke-width:5;stroke-miterlimit:10;}
</style>
<g>
	<g>
		<path class="st0" d="M199.6,41.9l0.8,8.3c0.3,2.4-0.2,4.2-0.7,5.2h0.3c3.1-6.8,10.9-13,19.9-14.8c2.4-0.7,5.2-1,7.8-0.7
			c9.8,0.5,17.9,5.2,22,14.5c6.7-9,16.1-14.8,26.4-14.8c17.1,0,28,10.8,28,32.9v50.8h-29V76.3c0-6.2-2.6-10.6-8.1-10.6
			c-11.9,0-13.7,10.9-13.7,23.1v34.5h-29.2V76.3c0-6-2.3-10.6-8-10.6c-11.9,0-13.8,10.8-13.8,23.1v34.5h-29.2V41.9H199.6z"/>
		<path class="st0" d="M322.1,41.9h26.4c0,2.1,0.3,4.2,0.5,6.2c0.2,2.1,0.2,3.7,0.5,5.1c4.9-7.3,13.5-13.5,23.5-13.5
			c2.6,0,5.1,0.3,5.2,0.3v28.4c-0.2,0-2.3-1.1-5.9-1.1c-10.6,0-21.2,7.7-21.2,22v34.2h-29V41.9z"/>
		<path class="st0" d="M404.5,3.7c9.5,0,15.5,5.7,15.5,15s-6,15.2-15.5,15.2c-9.6,0-15.6-5.9-15.6-15.2S394.9,3.7,404.5,3.7z
			 M419,41.9v81.5h-29.2V41.9H419z"/>
		<path class="st0" d="M452.9,3.7c9.5,0,15.5,5.7,15.5,15s-6,15.2-15.5,15.2c-9.6,0-15.6-5.9-15.6-15.2S443.3,3.7,452.9,3.7z
			 M467.4,41.9v81.5h-29.2V41.9H467.4z"/>
		<path class="st0" d="M571,123.4h-26.2l-0.7-6.4c-0.2-3.1,0.3-5.2,0.3-5.2h-0.3c-3.6,7.8-14,13.8-25.4,13.8c-20.7,0-38-15.6-38-43
			c0-27.5,17.3-43,37.3-43c11.2,0,19.9,4.6,24.1,10.3h0.3c0,0-0.5-2.1-0.5-6.8v-37h29V123.4z M508,82.7c0,11.4,7.2,18.9,16.5,18.9
			c8.6,0,16.5-6.7,16.5-18.9c0-12.2-7.8-18.9-16.5-18.9C515.2,63.8,508,71.1,508,82.7z"/>
		<path class="st0" d="M612.6,92.3c-15.6-4.1-26.7-10.6-26.7-26.9c0-16,11.9-25.7,31.9-25.7c13.2,0,23.6,3.1,28.2,4.9v24.6
			c-5.2-2.6-13.4-5.2-20.5-6.2c-2.4-0.2-4.9-0.3-7-0.2c-2.6,0.3-6,1.1-6,4.1c0,2.8,3.1,4.6,10.6,6.5c19.2,4.9,28.2,11.6,28.2,26.7
			c0,16.3-13.4,25.6-35.5,25.6c-13.4,0-22.8-2.9-28.4-5.2V95.2c7.5,4.2,20,8,28,8c4.7,0,9.3-1,9.3-4.4
			C624.6,95.7,620.2,94.4,612.6,92.3z"/>
	</g>
	<circle class="st1" cx="73.4" cy="81.7" r="68.6"/>
	<circle class="st1" cx="73.4" cy="81.7" r="37.4"/>
	<polyline class="st1" points="73.4,13.1 73.4,81.7 142,81.7 	"/>
	<path class="st0" d="M102.2,13.9c4.6,0,7.6,2.8,7.6,7.3c0,4.5-2.9,7.4-7.6,7.4c-4.7,0-7.7-2.9-7.7-7.4
		C94.5,16.7,97.5,13.9,102.2,13.9z"/>
	<path class="st0" d="M73.7,74.1c4.6,0,7.6,2.8,7.6,7.3c0,4.5-2.9,7.4-7.6,7.4C69,88.9,66,86,66,81.5C66,76.9,69,74.1,73.7,74.1z"/>
	<path class="st0" d="M108.3,60.3c4.6,0,7.6,2.8,7.6,7.3c0,4.5-2.9,7.4-7.6,7.4c-4.7,0-7.7-2.9-7.7-7.4
		C100.6,63.1,103.6,60.3,108.3,60.3z"/>
</g>
</svg>
